<svg preserveAspectRatio="none" width="100%" height="100%" overflow="visible" style="display: block;" viewBox="0 0 32 32" fill="none" xmlns="http://www.w3.org/2000/svg">
<g id="SVG" clip-path="url(#clip0_0_4)">
<path id="Vector" d="M27.202 4.652C24.2385 1.66108 20.1984 -0.0149222 15.988 0C7.254 0 0.136 7.116 0.128 15.852C0.128 18.65 0.86 21.372 2.242 23.782L0 32L8.408 29.796C10.734 31.0618 13.3399 31.7253 15.988 31.726H15.996C24.732 31.726 31.848 24.61 31.856 15.866C31.8606 11.6573 30.1853 7.62071 27.202 4.652V4.652M15.988 29.04C13.626 29.0408 11.3074 28.4052 9.276 27.2L8.796 26.912L3.808 28.22L5.14 23.354L4.828 22.852C3.50761 20.7527 2.80929 18.3221 2.814 15.842C2.814 8.59 8.728 2.674 15.996 2.674C19.4932 2.66773 22.8482 4.05796 25.316 6.536C27.7924 9.00439 29.1805 12.3595 29.172 15.856C29.164 23.134 23.25 29.04 15.988 29.04V29.04M23.218 19.172C22.824 18.974 20.878 18.016 20.512 17.88C20.148 17.75 19.882 17.682 19.622 18.078C19.356 18.472 18.596 19.37 18.368 19.628C18.14 19.894 17.904 19.924 17.508 19.728C17.114 19.528 15.836 19.112 14.324 17.758C13.144 16.708 12.354 15.408 12.118 15.014C11.89 14.618 12.096 14.406 12.294 14.208C12.468 14.032 12.688 13.744 12.886 13.516C13.086 13.288 13.152 13.12 13.282 12.856C13.412 12.588 13.35 12.36 13.252 12.162C13.152 11.964 12.362 10.01 12.028 9.222C11.708 8.444 11.382 8.552 11.138 8.542C10.91 8.528 10.644 8.528 10.378 8.528C9.97192 8.53809 9.58845 8.71714 9.32 9.022C8.956 9.418 7.938 10.376 7.938 12.33C7.938 14.284 9.358 16.162 9.558 16.428C9.754 16.694 12.346 20.692 16.324 22.412C17.264 22.822 18.004 23.064 18.582 23.248C19.532 23.552 20.39 23.506 21.074 23.408C21.834 23.292 23.416 22.448 23.75 21.522C24.078 20.594 24.078 19.802 23.978 19.636C23.88 19.468 23.614 19.37 23.218 19.172V19.172" fill="var(--fill-0, white)"/>
</g>
<defs>
<clipPath id="clip0_0_4">
<rect width="32" height="32" fill="white"/>
</clipPath>
</defs>
</svg>
