<svg preserveAspectRatio="none" width="100%" height="100%" overflow="visible" style="display: block;" viewBox="0 0 21.3 17" fill="none" xmlns="http://www.w3.org/2000/svg">
<g id="Container">
<path id="Icon" d="M3 17C2.16667 17 1.45833 16.7083 0.875 16.125C0.291667 15.5417 0 14.8333 0 14V9H14.025C14.1083 8.43333 14.3333 7.9375 14.7 7.5125C15.0667 7.0875 15.5167 6.78333 16.05 6.6L20.675 5.05L21.3 6.95L16.675 8.5C16.475 8.56667 16.3125 8.6875 16.1875 8.8625C16.0625 9.0375 16 9.23333 16 9.45V14C16 14.8333 15.7083 15.5417 15.125 16.125C14.5417 16.7083 13.8333 17 13 17H3V17M2.425 7C2.65833 6.4 2.69583 5.86667 2.5375 5.4C2.37917 4.93333 2.10833 4.46667 1.725 4C1.175 3.33333 0.8125 2.70417 0.6375 2.1125C0.4625 1.52083 0.433333 0.816667 0.55 0H2.5C2.36667 0.633333 2.34583 1.15 2.4375 1.55C2.52917 1.95 2.76667 2.38333 3.15 2.85C3.78333 3.61667 4.1875 4.29583 4.3625 4.8875C4.5375 5.47917 4.54167 6.18333 4.375 7H2.425V7M6.425 7C6.65833 6.4 6.7 5.86667 6.55 5.4C6.4 4.93333 6.13333 4.46667 5.75 4C5.2 3.33333 4.83333 2.70417 4.65 2.1125C4.46667 1.52083 4.43333 0.816667 4.55 0H6.5C6.36667 0.633333 6.34583 1.15 6.4375 1.55C6.52917 1.95 6.76667 2.38333 7.15 2.85C7.78333 3.61667 8.1875 4.29583 8.3625 4.8875C8.5375 5.47917 8.54167 6.18333 8.375 7H6.425V7M10.425 7C10.6583 6.4 10.7 5.86667 10.55 5.4C10.4 4.93333 10.1333 4.46667 9.75 4C9.2 3.33333 8.83333 2.70417 8.65 2.1125C8.46667 1.52083 8.43333 0.816667 8.55 0H10.5C10.3667 0.633333 10.3458 1.15 10.4375 1.55C10.5292 1.95 10.7667 2.38333 11.15 2.85C11.7833 3.61667 12.1875 4.29583 12.3625 4.8875C12.5375 5.47917 12.5417 6.18333 12.375 7H10.425V7" fill="var(--fill-0, #E8842A)"/>
</g>
</svg>
