<svg preserveAspectRatio="none" width="100%" height="100%" overflow="visible" style="display: block;" viewBox="0 0 16.25 16.6667" fill="none" xmlns="http://www.w3.org/2000/svg">
<g id="Container">
<path id="Icon" d="M2.20833 16.6667C1.45833 16.6667 0.902778 16.5139 0.541667 16.2083C0.180556 15.9028 0 15.4444 0 14.8333C0 14.0278 0.340278 13.5139 1.02083 13.2917C1.70139 13.0694 2.50694 12.9583 3.4375 12.9583H3.875V11.7917C3.875 11.3194 3.86806 10.934 3.85417 10.6354C3.84028 10.3368 3.79861 10.0903 3.72917 9.89583C3.65972 9.70139 3.57986 9.56597 3.48958 9.48958C3.39931 9.41319 3.27778 9.375 3.125 9.375C3 9.375 2.88542 9.39583 2.78125 9.4375C2.67708 9.47917 2.59028 9.53472 2.52083 9.60417C2.46528 9.67361 2.43056 9.74653 2.41667 9.82292C2.40278 9.89931 2.40972 9.97917 2.4375 10.0625C2.52083 10.2153 2.61806 10.3646 2.72917 10.5104C2.84028 10.6563 2.89583 10.8264 2.89583 11.0208C2.89583 11.3681 2.77431 11.6632 2.53125 11.9062C2.28819 12.1493 1.99306 12.2708 1.64583 12.2708C1.29861 12.2708 1.00347 12.1493 0.760417 11.9062C0.517361 11.6632 0.395833 11.3681 0.395833 11.0208C0.395833 10.6458 0.479167 10.3403 0.645833 10.1042C0.8125 9.86806 1.03819 9.68056 1.32292 9.54167C1.60764 9.40278 1.9375 9.30556 2.3125 9.25C2.6875 9.19444 3.09028 9.16667 3.52083 9.16667C4.70139 9.16667 5.52083 9.37847 5.97917 9.80208C6.4375 10.2257 6.66667 10.9722 6.66667 12.0417V15.1042C6.66667 15.3681 6.69792 15.5625 6.76042 15.6875C6.82292 15.8125 6.93056 15.875 7.08333 15.875C7.25 15.875 7.38542 15.75 7.48958 15.5C7.59375 15.25 7.65972 14.8611 7.6875 14.3333H7.91667C7.875 15.1944 7.71181 15.7986 7.42708 16.1458C7.14236 16.4931 6.66667 16.6667 6 16.6667C5.40278 16.6667 4.93403 16.5729 4.59375 16.3854C4.25347 16.1979 4.03472 15.9167 3.9375 15.5417C3.79861 15.9444 3.59375 16.2326 3.32292 16.4062C3.05208 16.5799 2.68056 16.6667 2.20833 16.6667V16.6667M9.97917 16.6667C9.70139 16.6667 9.47569 16.5521 9.30208 16.3229C9.12847 16.0937 9.09722 15.8472 9.20833 15.5833L11.3333 9.97917C11.4306 9.74306 11.5833 9.54861 11.7917 9.39583C12 9.24306 12.2361 9.16667 12.5 9.16667C12.7639 9.16667 13 9.24306 13.2083 9.39583C13.4167 9.54861 13.5694 9.74306 13.6667 9.97917L15.7917 15.5833C15.9028 15.8472 15.8715 16.0937 15.6979 16.3229C15.5243 16.5521 15.2986 16.6667 15.0208 16.6667C14.8542 16.6667 14.7014 16.6181 14.5625 16.5208C14.4236 16.4236 14.3194 16.2917 14.25 16.125L13.8333 14.9167H11.1667L10.75 16.125C10.6944 16.2778 10.5972 16.4062 10.4583 16.5104C10.3194 16.6146 10.1597 16.6667 9.97917 16.6667V16.6667M3.22917 16.0625C3.40972 16.0625 3.5625 15.9201 3.6875 15.6354C3.8125 15.3507 3.875 15.0069 3.875 14.6042V13.2083C3.51389 13.2083 3.25 13.316 3.08333 13.5312C2.91667 13.7465 2.83333 14.0972 2.83333 14.5833V14.8125C2.83333 15.3125 2.86111 15.6458 2.91667 15.8125C2.97222 15.9792 3.07639 16.0625 3.22917 16.0625V16.0625M11.7083 13.4583H13.3125L12.5 11.0833L11.7083 13.4583V13.4583M10.9375 7.52083C10.2708 7.52083 9.73958 7.28819 9.34375 6.82292C8.94792 6.35764 8.75 5.72917 8.75 4.9375C8.75 3.49306 9.20833 2.30903 10.125 1.38542C11.0417 0.461806 12.2153 0 13.6458 0C14.2292 0 14.7014 0.0659722 15.0625 0.197917C15.4236 0.329861 15.6042 0.5 15.6042 0.708333C15.6042 0.791667 15.5903 0.875 15.5625 0.958333C15.5347 1.04167 15.4861 1.11806 15.4167 1.1875C15.3472 1.28472 15.2604 1.35417 15.1562 1.39583C15.0521 1.4375 14.9444 1.44444 14.8333 1.41667C14.6389 1.36111 14.4167 1.3125 14.1667 1.27083C13.9167 1.22917 13.6875 1.20833 13.4792 1.20833C12.4931 1.20833 11.7014 1.54167 11.1042 2.20833C10.5069 2.875 10.2083 3.75694 10.2083 4.85417C10.2083 5.15972 10.2639 5.47917 10.375 5.8125C10.4861 6.14583 10.7361 6.3125 11.125 6.3125C11.2778 6.3125 11.4271 6.27778 11.5729 6.20833C11.7188 6.13889 11.8472 6.04167 11.9583 5.91667C12.1944 5.66667 12.4132 5.25 12.6146 4.66667C12.816 4.08333 13 3.375 13.1667 2.54167C13.1944 2.36111 13.2674 2.23264 13.3854 2.15625C13.5035 2.07986 13.6667 2.04167 13.875 2.04167C14.125 2.04167 14.316 2.10764 14.4479 2.23958C14.5799 2.37153 14.6181 2.53472 14.5625 2.72917C14.3958 3.32639 14.2743 3.84722 14.1979 4.29167C14.1215 4.73611 14.0833 5.13889 14.0833 5.5C14.0833 5.77778 14.1215 5.97917 14.1979 6.10417C14.2743 6.22917 14.3889 6.29167 14.5417 6.29167C14.6944 6.29167 14.8437 6.23611 14.9896 6.125C15.1354 6.01389 15.3403 5.80556 15.6042 5.5C15.6319 5.45833 15.7361 5.40972 15.9167 5.35417C16.0278 5.35417 16.1111 5.39583 16.1667 5.47917C16.2222 5.5625 16.25 5.68056 16.25 5.83333C16.25 6.22222 16.0278 6.59722 15.5833 6.95833C15.1389 7.31944 14.6736 7.5 14.1875 7.5C13.8264 7.5 13.5174 7.40278 13.2604 7.20833C13.0035 7.01389 12.8264 6.73611 12.7292 6.375C12.5208 6.73611 12.2639 7.01736 11.9583 7.21875C11.6528 7.42014 11.3125 7.52083 10.9375 7.52083V7.52083M0.833333 7.5V2.91667C0.833333 2.11111 1.11806 1.42361 1.6875 0.854167C2.25694 0.284722 2.94444 0 3.75 0C4.55556 0 5.24306 0.284722 5.8125 0.854167C6.38194 1.42361 6.66667 2.11111 6.66667 2.91667V7.5H5V5.83333H2.5V7.5H0.833333V7.5M2.5 4.16667H5V2.91667C5 2.56944 4.87847 2.27431 4.63542 2.03125C4.39236 1.78819 4.09722 1.66667 3.75 1.66667C3.40278 1.66667 3.10764 1.78819 2.86458 2.03125C2.62153 2.27431 2.5 2.56944 2.5 2.91667V4.16667V4.16667" fill="var(--fill-0, #F1DFD4)"/>
</g>
</svg>
